<svg viewBox="0 0 200 200" xmlns="http://www.w3.org/2000/svg">
  <!-- Outer Circle Background -->
  <circle cx="100" cy="100" r="95" fill="none" stroke="#9ca3af" stroke-width="4"/>
  <circle cx="100" cy="100" r="90" fill="#1e293b" stroke="#e5e7eb" stroke-width="2"/>
  
  <!-- Inner Orange Circle -->
  <circle cx="100" cy="100" r="60" fill="#ff6b35"/>
  
  <!-- Center SI Text -->
  <text x="100" y="115" font-family="Arial, sans-serif" font-size="48" font-weight="bold" fill="white" text-anchor="middle" font-style="italic">SI</text>
  
  <!-- Left Dumbbell -->
  <g>
    <!-- Left plate -->
    <rect x="20" y="85" width="8" height="30" fill="white" stroke="#1a1a1a" stroke-width="1"/>
    <rect x="18" y="80" width="12" height="5" fill="white" stroke="#1a1a1a" stroke-width="1"/>
    <rect x="18" y="115" width="12" height="5" fill="white" stroke="#1a1a1a" stroke-width="1"/>
    
    <!-- Bar -->
    <rect x="28" y="95" width="44" height="10" fill="white" stroke="#1a1a1a" stroke-width="1" rx="2"/>
  </g>
  
  <!-- Right Dumbbell -->
  <g>
    <!-- Right plate -->
    <rect x="172" y="85" width="8" height="30" fill="white" stroke="#1a1a1a" stroke-width="1"/>
    <rect x="170" y="80" width="12" height="5" fill="white" stroke="#1a1a1a" stroke-width="1"/>
    <rect x="170" y="115" width="12" height="5" fill="white" stroke="#1a1a1a" stroke-width="1"/>
    
    <!-- Bar -->
    <rect x="128" y="95" width="44" height="10" fill="white" stroke="#1a1a1a" stroke-width="1" rx="2"/>
  </g>
  
  <!-- Top Text Arc - SATURN -->
  <path id="topArc" d="M 40 100 A 60 60 0 0 1 160 100" fill="none"/>
  <text font-family="Arial, sans-serif" font-size="16" font-weight="bold" fill="white" letter-spacing="3">
    <textPath href="#topArc" startOffset="50%" text-anchor="middle">
      SATURN
    </textPath>
  </text>
  
  <!-- Bottom Text Arc - IMPORTS -->
  <path id="bottomArc" d="M 160 100 A 60 60 0 0 1 40 100" fill="none"/>
  <text font-family="Arial, sans-serif" font-size="16" font-weight="bold" fill="white" letter-spacing="2">
    <textPath href="#bottomArc" startOffset="50%" text-anchor="middle">
      IMPORTS
    </textPath>
  </text>
  
  <!-- Stars -->
  <circle cx="50" cy="45" r="2" fill="white"/>
  <circle cx="150" cy="45" r="2" fill="white"/>
  <circle cx="50" cy="155" r="2" fill="white"/>
  <circle cx="150" cy="155" r="2" fill="white"/>
</svg>